# xmcd
#
# Track frame offsets:
#	150
#	17460
#	28889
#	47182
#	60320
#	71916
#	85389
#	100123
#	117959
#	134486
#	147564
#	165290
#
# Disc length: 2420 seconds
#
# Revision: 1
# Processed by: cddbd v1.5.2PL0 Copyright (c) Steve Scherf et al.
# Submitted via: audiograbber 1.83.01
#
DISCID=a509720c
DTITLE=Trey Hensley - It Is Waht It Is
DYEAR=2009
DGENRE=Country
TTITLE0=Country Comfort
TTITLE1=I Don't Like Me Without You
TTITLE2=On The Line
TTITLE3=It Is What It Is
TTITLE4=She Always Got What She Wanted
TTITLE5=Willie Jones
TTITLE6=The Hand That Rocks The Cradle
TTITLE7=The Legend And The Man
TTITLE8=A Six Pack Ago
TTITLE9=Jesus And John Wayne
TTITLE10=Billy Jack Willis
TTITLE11=You'll Find Your Way
EXTD=
EXTT0=
EXTT1=
EXTT2=
EXTT3=
EXTT4=
EXTT5=
EXTT6=
EXTT7=
EXTT8=
EXTT9=
EXTT10=
EXTT11=
PLAYORDER=
